<mxfile host="Electron" modified="2023-10-29T14:30:15.085Z" agent="Mozilla/5.0 (Macintosh; Intel Mac OS X 10_15_7) AppleWebKit/537.36 (KHTML, like Gecko) draw.io/22.0.3 Chrome/114.0.5735.289 Electron/25.8.4 Safari/537.36" etag="s8bRESinYQBxBQPLJjS4" version="22.0.3" type="device" pages="2">
  <diagram name="stack ancienne gen" id="1NF_FrgRjvnMLzRjzJ_T">
    <mxGraphModel dx="1413" dy="417" grid="1" gridSize="10" guides="1" tooltips="1" connect="1" arrows="1" fold="1" page="1" pageScale="1" pageWidth="827" pageHeight="1169" math="0" shadow="0">
      <root>
        <mxCell id="0" />
        <mxCell id="1" parent="0" />
        <mxCell id="47dvgBa--mnJyIB1t5_r-8" value="&lt;b&gt;&lt;font style=&quot;font-size: 16px;&quot;&gt;CLUSTER&lt;/font&gt;&lt;/b&gt;" style="rounded=0;whiteSpace=wrap;html=1;fillColor=#f8cecc;strokeColor=#b85450;labelPosition=left;verticalLabelPosition=top;align=right;verticalAlign=bottom;fontColor=#CC0000;" vertex="1" parent="1">
          <mxGeometry x="-110" y="170" width="1500" height="360" as="geometry" />
        </mxCell>
        <mxCell id="47dvgBa--mnJyIB1t5_r-3" value="" style="rounded=0;whiteSpace=wrap;html=1;" vertex="1" parent="1">
          <mxGeometry x="290" y="200" width="270" height="120" as="geometry" />
        </mxCell>
        <mxCell id="47dvgBa--mnJyIB1t5_r-18" style="edgeStyle=orthogonalEdgeStyle;rounded=0;orthogonalLoop=1;jettySize=auto;html=1;exitX=1;exitY=0.5;exitDx=0;exitDy=0;" edge="1" parent="1" target="47dvgBa--mnJyIB1t5_r-17">
          <mxGeometry relative="1" as="geometry">
            <mxPoint x="538.2600000000002" y="260" as="sourcePoint" />
            <mxPoint x="739.94" y="346" as="targetPoint" />
            <Array as="points">
              <mxPoint x="630" y="260" />
              <mxPoint x="630" y="346" />
            </Array>
          </mxGeometry>
        </mxCell>
        <mxCell id="47dvgBa--mnJyIB1t5_r-4" value="" style="shape=image;verticalLabelPosition=bottom;labelBackgroundColor=default;verticalAlign=top;aspect=fixed;imageAspect=0;image=https://www.dadall.info/data/images/logo/loki_logo.png;" vertex="1" parent="1">
          <mxGeometry x="357.22999999999996" y="207.5" width="160.79" height="105" as="geometry" />
        </mxCell>
        <mxCell id="47dvgBa--mnJyIB1t5_r-5" value="" style="rounded=0;whiteSpace=wrap;html=1;" vertex="1" parent="1">
          <mxGeometry x="290" y="380" width="270" height="120" as="geometry" />
        </mxCell>
        <mxCell id="47dvgBa--mnJyIB1t5_r-19" style="edgeStyle=orthogonalEdgeStyle;rounded=0;orthogonalLoop=1;jettySize=auto;html=1;exitX=1;exitY=0.5;exitDx=0;exitDy=0;" edge="1" parent="1" source="47dvgBa--mnJyIB1t5_r-10" target="47dvgBa--mnJyIB1t5_r-17">
          <mxGeometry relative="1" as="geometry">
            <Array as="points">
              <mxPoint x="629" y="440" />
              <mxPoint x="629" y="380" />
            </Array>
          </mxGeometry>
        </mxCell>
        <mxCell id="47dvgBa--mnJyIB1t5_r-10" value="" style="shape=image;verticalLabelPosition=bottom;labelBackgroundColor=default;verticalAlign=top;aspect=fixed;imageAspect=0;image=https://cfd-innovation.fr/wp-content/uploads/2023/04/prometheusio-ar21.png;" vertex="1" parent="1">
          <mxGeometry x="337" y="390" width="201.26" height="100.63" as="geometry" />
        </mxCell>
        <mxCell id="47dvgBa--mnJyIB1t5_r-13" value="Scrap logs&lt;br style=&quot;font-size: 15px;&quot;&gt;" style="text;html=1;strokeColor=none;fillColor=none;align=center;verticalAlign=middle;whiteSpace=wrap;rounded=0;fontSize=15;" vertex="1" parent="1">
          <mxGeometry x="200" y="230" width="90" height="30" as="geometry" />
        </mxCell>
        <mxCell id="47dvgBa--mnJyIB1t5_r-14" value="Scrap metrics" style="text;html=1;strokeColor=none;fillColor=none;align=center;verticalAlign=middle;whiteSpace=wrap;rounded=0;fontSize=15;" vertex="1" parent="1">
          <mxGeometry x="180" y="450" width="110" height="30" as="geometry" />
        </mxCell>
        <mxCell id="47dvgBa--mnJyIB1t5_r-20" value="" style="rounded=0;whiteSpace=wrap;html=1;" vertex="1" parent="1">
          <mxGeometry x="719.7" y="290.01" width="270" height="120" as="geometry" />
        </mxCell>
        <mxCell id="47dvgBa--mnJyIB1t5_r-17" value="" style="shape=image;verticalLabelPosition=bottom;labelBackgroundColor=default;verticalAlign=top;aspect=fixed;imageAspect=0;image=https://grafana.com/docs/mimir/latest/mimir-logo.png;" vertex="1" parent="1">
          <mxGeometry x="719.7" y="312.46" width="270.3" height="73.2" as="geometry" />
        </mxCell>
        <mxCell id="47dvgBa--mnJyIB1t5_r-25" value="store logs" style="text;html=1;strokeColor=none;fillColor=none;align=center;verticalAlign=middle;whiteSpace=wrap;rounded=0;fontSize=15;" vertex="1" parent="1">
          <mxGeometry x="640" y="299.38" width="60" height="30" as="geometry" />
        </mxCell>
        <mxCell id="47dvgBa--mnJyIB1t5_r-26" value="store metrics" style="text;html=1;strokeColor=none;fillColor=none;align=center;verticalAlign=middle;whiteSpace=wrap;rounded=0;fontSize=15;" vertex="1" parent="1">
          <mxGeometry x="650" y="390" width="60" height="30" as="geometry" />
        </mxCell>
        <mxCell id="47dvgBa--mnJyIB1t5_r-31" style="edgeStyle=orthogonalEdgeStyle;rounded=0;orthogonalLoop=1;jettySize=auto;html=1;exitX=0;exitY=0.5;exitDx=0;exitDy=0;entryX=1;entryY=0.5;entryDx=0;entryDy=0;" edge="1" parent="1" source="47dvgBa--mnJyIB1t5_r-29" target="47dvgBa--mnJyIB1t5_r-17">
          <mxGeometry relative="1" as="geometry">
            <Array as="points">
              <mxPoint x="1100" y="349" />
            </Array>
          </mxGeometry>
        </mxCell>
        <mxCell id="47dvgBa--mnJyIB1t5_r-29" value="" style="rounded=0;whiteSpace=wrap;html=1;" vertex="1" parent="1">
          <mxGeometry x="1100" y="284.89" width="270" height="120" as="geometry" />
        </mxCell>
        <mxCell id="56sRIrPHk9S22fWrNIrV-1" value="" style="rounded=0;whiteSpace=wrap;html=1;" vertex="1" parent="1">
          <mxGeometry x="-60" y="300" width="180" height="100" as="geometry" />
        </mxCell>
        <mxCell id="47dvgBa--mnJyIB1t5_r-30" value="" style="shape=image;verticalLabelPosition=bottom;labelBackgroundColor=default;verticalAlign=top;aspect=fixed;imageAspect=0;image=https://cdn.icon-icons.com/icons2/2699/PNG/512/grafana_logo_icon_171049.png;" vertex="1" parent="1">
          <mxGeometry x="1129.49" y="290.01" width="211.02" height="105.51" as="geometry" />
        </mxCell>
        <mxCell id="47dvgBa--mnJyIB1t5_r-32" value="read data" style="text;html=1;strokeColor=none;fillColor=none;align=center;verticalAlign=middle;whiteSpace=wrap;rounded=0;fontSize=15;" vertex="1" parent="1">
          <mxGeometry x="1010" y="312.46" width="80" height="30" as="geometry" />
        </mxCell>
        <mxCell id="47dvgBa--mnJyIB1t5_r-35" style="edgeStyle=orthogonalEdgeStyle;rounded=0;orthogonalLoop=1;jettySize=auto;html=1;" edge="1" parent="1" source="47dvgBa--mnJyIB1t5_r-33" target="47dvgBa--mnJyIB1t5_r-30">
          <mxGeometry relative="1" as="geometry" />
        </mxCell>
        <mxCell id="47dvgBa--mnJyIB1t5_r-33" value="User&lt;br&gt;" style="shape=umlActor;verticalLabelPosition=bottom;verticalAlign=top;html=1;outlineConnect=0;" vertex="1" parent="1">
          <mxGeometry x="1550" y="312.77" width="30" height="60" as="geometry" />
        </mxCell>
        <mxCell id="47dvgBa--mnJyIB1t5_r-36" value="Check dashboard" style="text;html=1;strokeColor=none;fillColor=none;align=center;verticalAlign=middle;whiteSpace=wrap;rounded=0;fontSize=15;" vertex="1" parent="1">
          <mxGeometry x="1410" y="312.46" width="130" height="30" as="geometry" />
        </mxCell>
        <mxCell id="47dvgBa--mnJyIB1t5_r-9" value="" style="shape=image;verticalLabelPosition=bottom;labelBackgroundColor=default;verticalAlign=top;aspect=fixed;imageAspect=0;image=https://1000logos.net/wp-content/uploads/2022/07/Kubernetes-Logo.png;" vertex="1" parent="1">
          <mxGeometry x="-60" y="299.39" width="180" height="101.25" as="geometry" />
        </mxCell>
        <mxCell id="47dvgBa--mnJyIB1t5_r-27" style="edgeStyle=orthogonalEdgeStyle;rounded=0;orthogonalLoop=1;jettySize=auto;html=1;entryX=0;entryY=0.5;entryDx=0;entryDy=0;" edge="1" parent="1" source="47dvgBa--mnJyIB1t5_r-9" target="47dvgBa--mnJyIB1t5_r-3">
          <mxGeometry relative="1" as="geometry">
            <Array as="points">
              <mxPoint x="30" y="260" />
            </Array>
          </mxGeometry>
        </mxCell>
        <mxCell id="47dvgBa--mnJyIB1t5_r-28" style="edgeStyle=orthogonalEdgeStyle;rounded=0;orthogonalLoop=1;jettySize=auto;html=1;entryX=0.982;entryY=-0.202;entryDx=0;entryDy=0;entryPerimeter=0;" edge="1" parent="1" source="47dvgBa--mnJyIB1t5_r-9" target="47dvgBa--mnJyIB1t5_r-14">
          <mxGeometry relative="1" as="geometry">
            <Array as="points">
              <mxPoint x="30" y="440" />
              <mxPoint x="289" y="440" />
            </Array>
          </mxGeometry>
        </mxCell>
      </root>
    </mxGraphModel>
  </diagram>
  <diagram id="ZWQTOV3S7LJMDiv5pzaz" name="stack nouvelle gen">
    <mxGraphModel dx="2684" dy="1322" grid="1" gridSize="10" guides="1" tooltips="1" connect="1" arrows="1" fold="1" page="1" pageScale="1" pageWidth="827" pageHeight="1169" math="0" shadow="0">
      <root>
        <mxCell id="0" />
        <mxCell id="1" parent="0" />
        <mxCell id="eNGsuhOy18T--R7iIYb0-1" value="&lt;b&gt;&lt;font style=&quot;font-size: 16px;&quot;&gt;CLUSTER&lt;/font&gt;&lt;/b&gt;" style="rounded=0;whiteSpace=wrap;html=1;fillColor=#f8cecc;strokeColor=#b85450;labelPosition=left;verticalLabelPosition=top;align=right;verticalAlign=bottom;fontColor=#CC0000;" vertex="1" parent="1">
          <mxGeometry x="-110" y="170" width="1500" height="360" as="geometry" />
        </mxCell>
        <mxCell id="ZKlr_kT3cUVLFaIX1UZP-1" value="" style="rounded=0;whiteSpace=wrap;html=1;" vertex="1" parent="1">
          <mxGeometry x="-70" y="201.25" width="260" height="268.75" as="geometry" />
        </mxCell>
        <mxCell id="3er7-ydJ2J3adyM58174-1" value="" style="shape=image;verticalLabelPosition=bottom;labelBackgroundColor=default;verticalAlign=top;aspect=fixed;imageAspect=0;image=https://1000logos.net/wp-content/uploads/2022/07/Kubernetes-Logo.png;" vertex="1" parent="1">
          <mxGeometry x="-30" y="220" width="180" height="101.25" as="geometry" />
        </mxCell>
        <mxCell id="3er7-ydJ2J3adyM58174-2" value="" style="shape=image;verticalLabelPosition=bottom;labelBackgroundColor=default;verticalAlign=top;aspect=fixed;imageAspect=0;image=data:image/png,iVBORw0KGgoAAAANSUhEUgAAAPcAAADkCAYAAABEzrJmAAABVWlDQ1BJQ0MgUHJvZmlsZQAAGJV1kL9LQlEcxc8rSzGhgqAl4Q0NDRb1DBqcVCiChocV9GN6Pk2Fp93ueyG1tDg3BxE0NETZ2tBQ/glB0I85qKEpAglSbt/rq9Si7+XL+XA4XA5fQKkZjFkeAPmCwxMzMXVpeUX1PsOPIHrpdRumzaK6PkcRfGv7VG+hSL0ZlX89vpRyvm3r/LXn7O50f/fwb75t/Km0bZLWaIdNxh1AUYn1osMkM+IBTqWIS5IzLu9JTrpcbmQWEnHiCnGfmTVSxNfEoWSLn2nhvLVpfnWQ7QPpwuI8qY92CBqmEMPEP5nJRiaOdTBsgSOHDLJwoCJKDoOFNPEsCjAxhhCxhnHasLzt75s1PX4CRHaAjmrTW30CyvdA/1XTG5kGBo+ByyIzuPFzSaXqsdfCmssBDnS9C/EWBLwXQJ0L8XEgRP0I6HwAKhuf1qhkXOxTV7kAAABWZVhJZk1NACoAAAAIAAGHaQAEAAAAAQAAABoAAAAAAAOShgAHAAAAEgAAAESgAgAEAAAAAQAAAPegAwAEAAAAAQAAAOQAAAAAQVNDSUkAAABTY3JlZW5zaG90UPiKLQAAAdZpVFh0WE1MOmNvbS5hZG9iZS54bXAAAAAAADx4OnhtcG1ldGEgeG1sbnM6eD0iYWRvYmU6bnM6bWV0YS8iIHg6eG1wdGs9IlhNUCBDb3JlIDYuMC4wIj4KICAgPHJkZjpSREYgeG1sbnM6cmRmPSJodHRwOi8vd3d3LnczLm9yZy8xOTk5LzAyLzIyLXJkZi1zeW50YXgtbnMjIj4KICAgICAgPHJkZjpEZXNjcmlwdGlvbiByZGY6YWJvdXQ9IiIKICAgICAgICAgICAgeG1sbnM6ZXhpZj0iaHR0cDovL25zLmFkb2JlLmNvbS9leGlmLzEuMC8iPgogICAgICAgICA8ZXhpZjpQaXhlbFlEaW1lbnNpb24+MjI4PC9leGlmOlBpeGVsWURpbWVuc2lvbj4KICAgICAgICAgPGV4aWY6UGl4ZWxYRGltZW5zaW9uPjI0NzwvZXhpZjpQaXhlbFhEaW1lbnNpb24+CiAgICAgICAgIDxleGlmOlVzZXJDb21tZW50PlNjcmVlbnNob3Q8L2V4aWY6VXNlckNvbW1lbnQ+CiAgICAgIDwvcmRmOkRlc2NyaXB0aW9uPgogICA8L3JkZjpSREY+CjwveDp4bXBtZXRhPgrdmlmwAABAAElEQVR4Ae1dB4BURba9DJPzkEGSKJIVQXLOQQEFWRCVNQfMOe3fdaO6a1jDuq45YEBEJCNBsggIIkmyZIc4Oc/AP6deV8/rnu5JdPd0T7+C6fD6hapbdereuqlqnEMRq1gUsChQ7SgQUu1aZDXIooBFAUUBC9zWQLAoUE0pYIG7mnas1SyLAqEWCaoXBbQG5Zw4qlJ4vEYNx7bWEOOA83HHs6xvgUqBGpZCLVC7zqg3QUsgnysywFwztGLCGK8/W3RW3axGzRoSYiE9sAeEqfYWuE3ECISPCox8QSEQnbFYdPacZObmSUZGjmTl5Ul+fqEUALwFBYUSFhYqYTVDJDw8VBJioiU+JlKiI8NLNFs/g/e2wF6CPAFzwAJ3gHSVBpwGNL8TfGnZubJuy175addhOXjsuBw7fkbS0jPxlyXZ2TlSVFjk2EJcFB4eJnGx0RITGyV1khKkaaO60rJpA7miXQu5rGUTqRlSLL+fxYP4LP1cx5tZ3/yZAha4/bl3UDdyYjMHLSo8Kz/vOyIrNu6UFeu3yYHDv0l2Vq6cO2uI1iWao3BqrK7VOtxg+iVO44GaoTUlMSFOOrRtIYN6dJDeHVpK4/pJCtysg3NdXN7EOug3FLDA7Tdd4VgRckwWLRYfOZ4i05dukMVrNsvBQ79Jfl4+WDdOsIG1BtHHP3JadSVf8Kn4i/2ooUezqdN4Dc88h8lBn2u7b1x8LIB+oYwb0kMGd2mjRHhWi3WzOHkxOf31kwVuP+sZZ1Cv27ZfPpqzUlZ8/7MDoGuEhACQRKMNkRqY59MeA+fAvgY8bmoDer16tWU0QH798O52bm6B/HyI7f1rLXB7n8bleoIrUL/26ULZ+PNOY92s8OZGvLZxX/5q5ttKnnb1dNu99E/269RkoY/iHfc1sF08gZCbXzW4m0wZP1ga1I5Xj7BAbqKZH320wO0HnWFey+4/ekqee3+WrFr7sx3UxeBzqizAR/G4EEqzgoICte4mRw/BXw0oxQxRHRg9p9As52oUg5TmL3J+/VezZk0Jgxa9Rg2bRFAa0HGbxKR4mTRmgNw5tr8S150nJ6eaWl+rgAIWuKuA6PqRZlBT6/36F4tl2uzlkovPDlzThkl1nY1LE5yFhYVSCBNXYq0EqVevltRKjJOWzS+QZo3qSH0ca1gnQaIiwiUmKlKZwLLzC2AaK5CUjGw5nHxGTqSkyd6Dyfh8UlJSMiT5+EnJz8mT0LAwZTZTQKfYbwa6mZvjp8aN68tDN4+RUb0vY5XVepz11LoC3Vbr3fcUsMDte5rbRVltcvpiyXr5zyfzJfm3k2qN65JTAzkETB4UaUVFRRIbFyutWjaVAd0vlX6dWkmb5g0lApy3siUFprMNvxyQldDCr96wTQ4fPo41fp6EYXIIrRlqiPtOIFfP4jHUq2untvLkraOlw8WNFcB52FK6VbY3PHOdBW7P0LFcd+GAN69PqSz75/uzZcu2PQrUxgtOwn97ITvEhXRCKYTo3bR5Yxna53K5fmRvadmkrjrVELppqrJ5mnGlbDuof7PfDx/U7W3P4Bqdk0mIybbN+yzd8It8seB7rPl3yZlTKQrkFN0duDhvyvqxoI7hmAhGD+0pD0waptbjbCvbrCcx40Tr1VcUsMDtA0pzgHOgEwfkZjRrvQhOvXjFjzYNeDFA7NXBefxXUFigDrW6pJmMG95LxvbvJLUTYu2gJhDVmTzfFZLtNyz9A9feqo5OQD9w7LR8CG39vO/Wy/HkUxIBAJcQ1/Fc1kEp89DW2rUT5ZbxQ+TW0X1hOw9R9+XTLVG99D7w9K8WuD1NUaf7ETAsHNh0QHntyyXy2axlkpqSrrge8WiYtNRp6oXgIagLsT5u0uwCrGlHyWhwa4rdGoSGyHseaC5+nMtPZ+E8w0KlHCeNY6fS5E3UfRrqnpuTCy+3cCEnV/ZxfQcnkLds2UwevWm0DOzSWnFw0sKot77AevcmBSxwe4m6ZlDzEYt+2CYvvPeNHDr4G9mcA6fTVaCmm+6i+fn5Ugd25euvHiB3XNNf+YAbWm01HyjA6Wu8/a7aAZwT4AT6jgPJ8uKHc5Q2Pw8+7BGREUYVbJOY+sKTWXCMberXq6M8dcsYaXFBHQvkBmV88mqB28Nk5hgnIDi+yaV2HUqWv/z3a1m/aYexXjUNfPujbcdy4QseGx8nIwZ1k0cnj5RG0HZrTl0TIKnKUjy5GJx82cZd8uon8+SnzTsV6CmunzV7uaGynAwU/wc9IqMj5YZrBst9EwZZpjMfdaQFbg8S2mzaOpOWJf/+/FuZMW9VqetqPr4A4jdLu/YXy+O3Xi39OrZUoOZEQdwre7U6o+pfzBIJ6/fatCUydeZSST52Agq1CAlB1Jliz7qqrL9pPd6gYV2558aR8rtBXYylipPvvL7Mej9/CljgPn8aOiiMuK6maevNqfPlxInTHNkOg1s9Th2DCA6TFkXwiy5qIndOGiFj+3VS62ozgDxQPa/cgmtyPfHo9fjMBaslAxFp7kR1NFtNWrzw0nYXyzN3jpVOrZqquYBtttbjnu0qC9znQU9yLvOgXLV5D0xbs2Tnzl9dg5rPIiJwYS7Wq7RV/378ULn9mr5KA6403/idgzxQirnOm3cfxnp8rqxcs0l5yYUhtBSNVf/t7UHbNMgZhTaKprPrhil/dbPkYz/f+lBpCljgrgTpnEFNl9EXP54r363aZHMZtYGTJ+piAyxFcCZN6NOzIzTJo6Rt8waKm/FUrZnWlwTKu16P01ZOsC/4fpu89MEs2b/vsISGhhpadQVyGz1AHrOoTlfWm64dIjeP6m2txz3Y6Ra4K0hMs8icnZsvr09bKtPmLFfiKLmy5kr226qBHKLEb4rhzS9sLH+5/zoZ0LmVOoVgMMRR24RgvzDwPijzGZrB9pA2b371nbw9dZ7kQFFYHtNZixaN5RFMeEO7t1eiunawsc2LgUeQKq6xBe5ydoAZ1Lxk9qqf5RVwpyNHjitRW4HaSQRlAAeDOriupiLphmsGIdCir0TCRmwGQjmrEBCnkTefo43cBvI9h0/KSx/Pk2WrNkoO7OPlWY/3hVTz+M1XSStkh3GWkgKCCH5SSQvcZXSEHlzkHuRIW/cekb+9PVM2IRRT2Xk0W3EhgudkZUsC0hhxXfngDXDJhPhpFmHLeHRA/6zaiRZQliGJVkAf8RpMZz9uhEkQhSDnOQq96gjnyGLTGV1Zx13ZRx6BSTABZjTnydV2ifVWCgUscJdCHLOCJ/l0urz62bcyc8GqMtfVzJLCgdq5Uxu1ru7R4SJjcJKh4TgHe7AUDXKtJPzvjGXyycxlcvjg0XKZzpgkYsoNI2Xi0G7KR519YixjgoWClW+nBW4XtDNzCa4dpy1eL//7bIGcPp2qxE1yI+1HrS4nYPGPa2rGVbeEH/g9k0bKmH4dMSAN32rimcAO1mI2nSXD9fadr5fLl7NXSFpqejlEdfgAtLlInrrtaunWvoUioQXyskeSBW4TjZxF8O827IRpZ7bs2XPQNah5LQDL2Gquq+ORXPCO66+UySN7SFJ8jNIcE9Caa5keFbQfzQpE7cq6dPkGNfEZpjOQxmmJwymREgBNZ0P6XyFP/H6UZTorxwiywG0bS+TWWtyjy+iLH82TFUhGqLKKao7rNOhIX4rgEfDMGti3szyJAI/mjWoXi+DMhlKOTgi2U5SoziWKjT6L1m2XlzGJ7tx5QHm4lYgfV0S0URJ9wFRPN46lctLKAlPa2Al6cDuL4C9jXf3VvJWShWwl5Mqaa9iJqI7VUJz6LMxYFMH/BtMW19UsRYWYJBD2HMwiuJ1WZXwwWwzysHnCWxDV3/50nqSnZSB+PExCQxgFZ0rZjM5gj+glUdNmDeWByYyYu0w9iX3J3/VcXMbjq/3PQQtuM6jZy47ZUGygdjJtmaO2mjRtJDcjSeCto/qoRAfGwLJAXRnEmEFOV9YXPpgrS1b+qEAeiRRRqjhITTaQ24517dxO/nj3WAfTmZUgAjSCiAQBKXgKW0sgahF8065D8vf/fW1kQyEZ9LRvJovtGE1bSbWTZMywnvLQ9cOMpAk4j6eaM5kEDzU911IlqpP8qgtqyNqt++TfUxfID+u2qIdw6WNw7OLhSulIfUMH6Cwwj8F0VishRvUx+yWYQR5U4HY2bb2EbChzFn1fqmmLkwDzljHaqWfXS+WB60dIl3bN7etqC9SeAzjvpNfjpCs/fzL/B3nny2/lwP7DynRGpZrz7ipmkDMLDINwJl/ZK+hNZ0EBbrMITtPWB3NWy4dfLbZlQ7GJeGYR3MapqQXPzcmR1m0vkod+P1qu7HWpYi30wOIp1rras8A23031mU0iYvLG/329Qj6avkgy0zMQGx5lnErWrIutz5QYhWOtW18ojyNBRB+Ez7IEo+msWoObfW8WwZkN5SVkEdm//4gCqVk5o0YAXzBItGmrFrjAdWMG2qO21NoQp1jc2k4tr38wm842bD8g/52+WJYj6qyooEiJ4qoCTiDXSlBy+YF9OsnTADn3PNOTfLAo3aotuM0iOF1GGbX1/bqtkPsMjqs1rvbRaZv5adqKhGvk8EHd5Qn4NzMbipmL2M+3PviMAhTPz2Kz0pBQQ9HJLDD0P9i+ba8yp4WFhpVYj3OS1iDXWWDuGj8gqFxZqx249ezMtTIT/b/08XyZuXCNY6L/EjM919V5Ssxu3bq5/PXe69S6mqPX7Fnls9FsPcglBcxadXL0t2eukLcQdZZyJk1CkTzSrenM1t/cQOG+G6+UsQM6q/ubx4rLBwb4wWoDbnYU+5DaUb5/9u0PpmwoxbO4ub9o2ioswub0eQXCUMzbfzcMipge9o7XmlvzNdbnqqeAecI9nZYpz38wXxYuWwcdSpqUx3TWqWNreeLWMQ5ZYKqjVj3gwU0gE9i6c5jo/7l3v5HtO/YZo9AmbmtFizpoO6ZNW78b3U/uHT9IuYyatbVVP4ytGrijgO4ndiUVmzoLzOq18CrEeHBlOqOorgp+p+lsJBJRPoJ8buYNDfU4cvfcQDoe0ODmupqFHcJE/y98NEcWL/+xVNMWBwLX1cy53a/35XL/pOHS8ZImakBworCUZYE0fB1NZ5zkpy3ZIO9MWyR7dh8wEkSUYTpjFpjbJwyTW6/uZzedcQ7gsi7QS0CC2yyCc139/jcr5aMZi+0uo0anAKkG9pUGnMcYtZWHhAEdLr1EHkay/KHd2ilQK2WN5TIa0GPZGBOU4EIkPStXmTuVKyuizpSoTrBy9tZFYZcvxjjRGygMuKK1YvDVwXQWUOBm31DLrU0ZzIby6sdzSk/0j907dChm7bq1VK4uHbVlmbb0SK8+72bTGaPOXkGCiOXIbcfdTSmKq+IA8mJ9DE1nvbpdKs8gtFRvoGAeb4FGpYABN2dmFopLNG09/95sJPrfriZeitquTVvnJA9OKzGxMXLVELiMIhuKZdoKtCFa8fpyqHCDBL2RA11ZX3hvlmzGpoYszOdmjBdjTKmDGEOKj+Nims4mjO4v900cokxnZrOqOjdAXvwe3GZQa9OWOdG/7hA7vVUnGaYtuoxe1uESeXbKeId1NU5RShj7NdaHakkBs+mMDXxn1kp5G0k3uKGhMp1xa2KY1OyF4wL/NKNgFphHoFXXprNAE9X9GtzmtTVF8H+9O9O2h3XxLGvvGHxQpi1sSF8AhdnFlzSXOyYOk+uGdFWn8F6cCMjlrRJcFDCbzujK+tLUhTLr2+8l9UyqG1dWG8ht0mLP7h3kT3deq0T1QAK434KbRKQWnNz6T2/OkHkI8GBxK4KjI7j7ZHxivEpI+PQto9QGembOH1xD2mqtmQLEKU1knOG5tKPp7Nk3p8vPW3crd+Oy1uMxcdHy2O3j5Prh3e1urP6uUfc7cJP+BCSBzXDMx1782KYws3FcnqCLSQQPx+4Wg/p1kfuvH+6Q6N8ybWliWe+kgLaPc1yQo89euVnemrZQduzY79rLDdcohqImhhpwS+4qL9w/UW2eoBmQv1LWr8BtBjaTJ/z9jWnKbdQdtzZMW3nSUWUZHa0S/Rv3YKL/EHSKv5LdqldVU8BY8hWbzj5duFbeRPyBEtWZIIKDx4GR8FCIWqPTbPbG07fYxXR/dXzxG3Cbgf3CRwvkvc/mqVnWPmvq0aAQa2jB6zeoI3cgdvf6Yd2Lt6EBY7e4tSaW9V4WBczr8QPHTssrny6U+UvWqp1XDa06FG5aWATeNcAZN/7qM7eqbKz+ysH9AtwENjWUXMP88a2v5fOvlxozJ3vGNHuSsAWFBcoD7Zqr+iPV7SiV6F+tqy1QlzWOrd/dUIDYZT48s+nsD699LruxoaMrBxjNcLgO/+djv1fbH3F315qhVbuHunPzqhzcGrtkyI/9+wv5Zv4qpfVWifH0jIlaE9g52dnSpNkF8ux9E+zeZbye15LgVrEocD4UMDMJJvV4CVz8Y2SBKUDyRsXFTckaNcCpiHvu8ZtUkkZ/4+BVDm4SlBz7qdeny1fYUE8RjXKQBrYCLTXhefAF7yz/fHiS4YhCv3Lg2d81lucz2Kxrq4YCZlGdaZef+NfHcvrkGcT5R0KQNNvFMQAxfun08uozt8vALq1Vxhd/WYNXKbi1KPPKZ4vkzQ9nuQQ2s6LQ2+jaUQPl+fuvxXoaO3iYRKiq6f7AeCqlmoycc5KVYwzImKgQiYuCj4Al5JTZgaSd9nKjG+t9f38XwSgHjd1R+KOtaA7OXOofPX+fdLi4sd8AvMrArUWYr5dtlKf/9ZEtkgsU03TDCCSwz9U4h108RsmTN41UCjb+bHFrPbRcv6dmnZMlG7Jk3eZsOXAkX9LTkcYEJT6+pjRvHC7dOkbL4C4xkhhjodw1BYuP0lddB6NM+fsHsmL1RmMd7gLgzKP+6fP320NIq3oSrRJwa1GcPuK/f/J1+97WduUZqFKEUK2ayO7/f/dfrxIoqIAAcG1rOBYPPOdPKZlFsmhdjsxemiZ7d+ZIYb6eKR3PDA2vIS3bRMnVQxIskDuSxuU3PV65ccK9L3wkCxevLQlwjE26sjKH+tR/TFHSEfFflQD3Obh1gymSX/3wy9hC5ldDgQbCqEJq4CSue/700I0WsF0ON8eDBPXyjTny1bdpsntHjpzFriflKQT5xa2j5HcjEqRfJ4uTl0YzAlwzllv//K4sWba+xBqc7s8E+JSbxshDk4ZWuXjuc3BrcVybvPSaxU5YgLsA4XkP3TleHpg4GAQqNlHYz7E+KAocPVUos1ZkyLK1WXJof65bTl0WuUIjakjTCyNlUK8YGdM3XhrWRnC7VUpQQHPwXGz6OPHxN2TTT78oDm4PPiH6Ma9Sg/7+c/dVuQ3cp+DWwGYqpFueel1lRFHToY3RaHPX2NED5dXHrlfc23JIKTHG5LfTRTJjWbos+C5Djh/Nk3PGkrrkiRU8UgOYbtQ4QoYOiJNxAyyQuyKfBjgdXiY9/qocPZJspHSyadE1s2Le9FmvPlKl+iGfgpvEolh+7SP/Vtv3aELwuAI2NgDo3KmtzHj5QaXEoB8wz7EKNbci+4/lycK12bJoWYYcO+I5UDvTlyC/oBlA3i9OhnWPlhaNIjBInc8K3u9ammSc+C3QGTFzLtN2mXVG/PwgAk3uGT+wysRzn4Fbc23u9vGP1z83NA1EOgsAXIhQTcbPTnvpYfs2uJZW3AD19v15MmNphqxZlylnThQo0c8gnHdfCfKkOmHSu0csYprjpF0LC+Sa4hrgjBH/x2ufSWhoaAlwMz/btJcfUT7omuPr633x7hNwE8NkwAzfvPref8qRI8cVR1YheGwlfszLzZP/e/hGuX1MX2udDZKQU+88lCfTF2fIilWZknYaoK7CklA7TAb0i5Vxg+KkdVML5GRLHL9kQOMgia7fsE2ioqJwzFAMa6n02lH95bn7xqM/jXN92YU+Abfm2m9j/+V/vTXdAdgUx3Nzc6Vvr04wIdxdJUTwJcHLelYezFc/7syVWcsz5ceNWZJ2xnecuqy6UT+SCE7e+XIo3vrHyhWtIyUCGvdgLXrZSCeX6x99RdKQjNEunpMsmAHovTbrP0/Zc7KRyfmq+MTTne54nLk+n7tStYuzni4M22SOs3uuG6oPBeV7PsxXyzblyIMvHZcnnkuWpYtSDW5tJlZVUwZ1ST1ZoOrGOrKurDPrHoyF3Jkm27bNG8jYEb2ksKCwmAwgCX/PhbT62bdr1XE6ZfmyYKHg3aK59pdLNyhx3NCOG4OBXDs/P0eGDOgqPTpcFJRcOzv3nKzbkSszFqUhgV+O5GSYBoh3u+a87s56rl+TIVu3QAnaOUauHhgn3dpGIvTWh6zpvFrgmYs1J751TD+Zu2Sdys8WhsQhVKjpKW/BdxtkyriBat9wHOYq1CfFq+BmQ7RSbM7SH1WDCGi1LkELuZVPYlKC3IXdPoKt0PFk6Y85MmdpOkILwf1s/t+BRgeCfPXyNFm/LkMugUPMqEHxMuiKKEmKhTYuCAq5M5VrzKp7zbBe8uYHM4tbDQDw9xMnTsuiDdtl4uCuADydYXyDbu+CGw0huHcdSpaNP+9UjdYKB36hGNPl8tYqM2kRRLua2MWxuhf6fS/7MUu+XGC4iJbXm8zf6cLJadtPWbJze7bMBMivHZYgA64IDq83zcAmX9VLps1dIWlpWHvDddrMvafP/94AN9m5j4a5V8GtB+T81VuKt/ghO7cVRnjdOKqv+kazS3UudDxZuTlHvlmcJvt3u/f7DnQa0J9955ZseR7SyFcA+ehBCdK3Y1S19nrTa29y715XtJOZCF2OjYtRy0ylVUOn7jt4VDG5Vk0b+Gz56RNwr1i/zXHMgptzv642bS6Unlhrs/hKVHGsiPe/0UX0K9iol67MkN+O5pfb79tTNeNUqkOQsSLyFdNQrrAEOX3dP70gPGi83sYN6QYnow3w2yiSkJpg0egAgj8rI1uWrNshBPe5Ihz0gZTqNXBru97+o6fkEOza5kIgMyZ7cK/LYUoJrZZ27SMn4Pe9KkO+hYuoN73JzHR1/kwhKRzx202aI+EfyuEDuVjbcx3ofKb3vnPZcfRgnnz4SZ7yrBsOxdvoPnHSuJ7Xhp73GlPKnekmTdPYgM6tpEWLRvLLL79KeE1uX8Tp1SjrkUaZHmvcLMMXxWsU1rPT2q17HUM6MbIKzxZKfEKcDO7aTrWRM1t1KJivZPuvefLtD1my8vvMKgM1aUlgR8eHyu2Tk2T8gARF3i+/S5N3P0mR7PRCnwJc1Qf+7wT5+x/DhRYTXt+esXBtjZF2F8IhxjdjXdHAmy+kOYdy/26Xyfbt+5Q0SgWa1ptv3fGrcuRKgO1bn+vN+ngN3NoZeduew6r+BLD2SCsqKJIGzWvbt/jRCglvNtSb9/Y3bzK2lYOnKxIy3Dgs0Q6eycMTZcvOfFm2JM3n4Nb0Z5ALQf45/uYvSpd+fWJl/JDq5fU2qEtbW/Zem13bxrwz0jNl3+ET0qlVUwV4by9FvQJuDiztuPLLPgPcGtjGwDsnXS5tpfqb7Q5Uvk3njb1YR3/5bYasXAMXUT/yJiMHubhZmB3YJDY5JI8t9xOC06V29qwU5V7bt1es/G5YnFyM9Xm4D9ajavB5+EULoBc3qSuNmzSQ/Rj7aicTzabxvnbLXgPcPhj4XgG3plkGkhoWr7eN6YuzFeNfO7dtbpzmg0bq+njqnaBeuz1XpsOctQ3vGal+5CJaRiMpZfhVQX0I8jlzUrDVbqa0bxcp44ZC63xpZMCBXGvNk+Jj5IL6dWTPrl8lJDJCacc5n5L0m5GcRBV2hJdD7bwK7uRTqZKRkWk0hi1DQY4VzGYR0rxBXeNAAL3S7/v7bbnyDdaMG+H37c/eZGQWJ2B+cy7HTxf6ZL3n/Nwyv6O+GSkFsnZ1gfLU63hZlAJ5z/aB5b+OBEMSDgmpISIcjaWoY8uTT6aoAzWoSfdy8Qq4tRfOroPQkttAbbQI3jzwJU/AZn11k+KMpnm/jedNQroEr96aI18jQmsDEg/mZQWGi+ghLBkoZWgxl5+PHqva6LLydAYnzbWrM5DpJEe6QG8wFmvy3h2isNQrz9VVe07NEA74GtIConlNhIFqZZqGQWoawnbTsnziiuodcBvtk8PJpw1KczFCVoJC5/kE7NSQEGuYZ/wd2wTE29+kyhczUv2aUxuEdnw9nVIoWbmQlGyuoBmZZ4XHAqVwEqVrK6WkieMS5Y6rE+0Tlb+2QSvJmtSvLWFhgJdt3Ov6ZmXlyMm0DAPcgL4+X//uyXevzoXHT6c61JUNoX07JjZa4qOjbb/5N7xnr86Sz6YHHrBBasnOOitZ2ZpniORgWcFj/C2QCjk5+4B94ffFRtv6SNRg5NjX9Dfes7NzJDU9WzXDCfceb5p3wG3T2qRn5qgKm8cSlWmx0RCxoBE14mE93iaP3XDznjx5+9PTASOGmxtOmufnnZP0nOJ1d0pGkTpm7g/zNf78mVycfbF1X54/V9M+b3LZGcLUS+YCwhfBcy0rJ9981GufvQNuW3WzcnIdK47GEdBhtkZ7e+ZyfHjFv01fnC6nf/NNR1S8dmVfAfUGQmqLz+MSg8cCtbAvvlyS7ufVN6bOuBg654CBYVMNhXj1ZvzGaEhVvGy68Cq48wsclTdsGgEdDpdTFq1sUF/87OU3aJU3/WyIT35WtXJVh0JgBGKrsQKyl4TYGuoYfwvUsgkx7+wbfy3a1h2F9MYUy50Vyqx3JkzEviheBXdhgc1DR7dYtQja2zAEs6MUnTVmMvXFz152HiyQM6ccJyc/q6Lb6nAC5bgaPTxBLkLmUl34mcfUmAtQhJ8+kS/sG38vejvgqqynd8EdwDLgL78iyT/WrP5eCGT6tPOPteUuIjEJodIYPtsDr4h2cDPlHMtjFyDBIc8JUXoP0/X+31wpQOaaXQedlnv+3klVVD+vmMKqqC0efeyh3/xX9COgFXeGviY+KUwaNAqTRvXDlGvpJc3CpX5SqNRJDJV6SU4KHVCoLUD/v79cIMfPFMrRk4Wy93C+7D9cIMeS8yUZNnAGlXCi8GV4aEU77tAx/+2birbFm+db4HZBXeY1O4jdMf2tKP0LgB0VFyqtW0dIz87R0hOeXM3rh0sUtgRyWP24qTwdQbhdEP86tqTIzqQCXAeek/1welkNPcOaH7Pl1705kgczGu9Znvu6eZxXDh9EPdlHwZavraLEtMDtgmJHTubL8d8qv64jV6WGlOY+xjMTPOfjRszrqZ3gBgHdu8bIlYik6twqUiIBaE8U1i0+uoYCOwE/eWSirN+RLXOWZ8mmTVmSmYYQUTbpPB6naICJhQkMSBPSqLL3S0bfHDudjyCTYn2CJ+hQ3e5hgdtFj/5yoEAyMKArUzhoGUc9DC6TbVpEwr+7QMUvHzmQV+HBzHvhv9RtFC6DkOBgJDbq88WuHwT6YOQ/64t9vH/eGy+zsdngKjiQMMCDyriKFrajxSVInjgkVuomhsm2vXkyd2GaZHHSqMSEkQ4vux3oIwvcpfeEBW4X9NkOR4nKJi7kYB2FLXEfv7GWfeAO7hotf38bDhjgguUdzFz3MotK9x7xcs+EBLmkie+5FH3Su2DjAUoJG7Fv2BufnpHtW7LgiFExSaRL9zh5+vY60qyBMdxG9ohB8n6Rzz+3uSe76IPSDrFvtsHBaDTCRK3ingKVmIfd36w6/JILDfmuSnpBkUOFR4VIbyQENIOYwPzLPfWkzWXRSkQvjU7k1LxPo+YR8vCUBvLCfXWrBNjmOlJsJ8j//UR9uWVyHanTIKzMdvB6iuKXIaf5s1Pq2oHN46RNl/ZREgY7PNtbmcI+YpSeVdxTwAK3E22OIkzySCWVaRy0hQXn5FRaSTcwcq0/3V1Hiafkyq4KQc2MuD0hgr/2h0YyYVBshdbVHOzM3bYGGwVswJZEvJ9z4bGNu3LV78zIml+B1QdzkU8ZlyQvP91Q2kFkZ3HxCHWcwG7dIVqeubOey8ynR48XKgkAJKtUOXYsX46cKknnSt2sml5kieVOHbsHm+9RgVTZQnAzJ3nXtiXT+ZKDP3tvXXn2jZOyf1eOw/qVYAgHJxszKkmmjK8liTHlG/aUNLYib9u6bTmyCWGpR2DOYkYYivNXQJx2LgTjx3PSZd0P6ZKEzf2aQ0LojAQJ3dpFSSuY0XR4qPN15u8dLoqQfz3cQF7+5LQsX54uRWizllR4f04gbSGl/PmeOnCiKTnEDiYXykzssEJaVVbRyHX3r9jS2NX9zXUN5s8lKR/M1EDbf96dp9LyVpYMHKw7t2bLM68dl1vB5bpD/DTHIRMYzz1cV/71wWnZhNjwszbmQ/PW5ImJcsuossMaCZ492J97yfpsWYdc6PugoMpG5JRKYYzn850b9GnAmdvC+vG3XGyOkJwN2zbs3Ou/z5CpUHS1uiRSenSOhDIttszspDSl/fmuuvJ6rVD5etYZlVWVz6ETTbfusfLYTcVrbP18SharkO74va9SZT/ymlcW2Lwf86Nv3pWnFH/6/ta7IwUscJvowcG3a58HvJ8Avp8A3Ceh9OnbO1buGJvksOYkB3/+/voyY3mGHD5eIDt2Qjk0NFZuRALDsgY8RWkGT8zDHwMplMMJAEsg0/GEhV69MdB4uyv8jefbNd+obzq4/fq1BfLj+gz5umm6jL0yXsb0jSt1WyDamR+cmIRYASSzWJctnWlzh2Z/JBRdzpLH7sN58tb0NFm7NgMTy9niZ7urZDmO79iNVM1QrpVH2ijH7ardKRa4TV16Kr1Ijp6Hfdt0KzV4aepZMC9Vtm7PkckQtUcila92vKidWFMlHyAXPoM1ehzWs6UBm4N44boseW/aGTkCMZyg5vl2gJofTnBDseeuqN+csK8mBx5DfQ7j/v95+5QsWZMlt/+ulvS5NMpt3SgFTMHkNRk+62yTc+H2Sd+sSJNps9IkGboMPsJlnZ0vLMf335IL5DRo17C2NYxdkcuiiokqx7A7SEaaG22X6bzyftRiMcHyr9eSZdWP8fLwDbUcuDjPcQUK8zO4Rv3PlymyalW6neuVNhHwt9hSODcnmFKvx7xAc9P2n7LljwfzZdjgeLllTKI0cOHOynoS4BHhJYFNbv3ShymyaWPmea2vzbQwf85IPyvsMwvcZqoUf3Y/vRefEzSf9h8tlPzcyivT3BGKnKoAiq+Vy9LkmdePS3JK+bW8TE7w8AvJsvjbVLiDllOcBbhjotzP23Ex+I0stIzCemdAcTXjqzPy9L+Py74K+HRTa//Mqych6mdAK155xVlpVczNhlLNj2MASqu7L36zwG2i8i9YbzNpvjeKFnt3QURfjZjk8hSas555+bihWQcYtSRQ1rVce8fCAcZdiQLn1utzd+fo4/qZP2Fn0mdePS7kxuUp3PTw1z2GRcB9TcpzJ/fnsK+2Yd1tFdcUsMBto0s6giR2VtJ5xTVpSx7lIKf55/NZqUg4UPYsUgghgrufEmBYCpe7MKUuA0nclViCW6PW3Umm49QL6Lth/8YyCzn8F9hsQCccKfOC8zhh135YChBEYpWSFLDAbaNJMgIRTkBB44vSrEm41Iorm/Q9kLP75ScbSbfecUYQSjnHMB1hIpg8203hbzynPIWKuzBMFIOGJMhLj9UXmvLKKnWhWGvYACr0cta3rPuV9jsDfBjoY5WSFHA/AkqeW62PnE+wSHkJQ0eVBo3D5a7xCUoJVZ7r6KTxwgP15c5b6kg9bLXjzrtN34t4Yu4uWyYrfdjhnb+p/F4OR0t+4bPoBvvAXfXlr3fXlQvquF/Hm69m4Mkdv0uUWogxZ5u9WRjgs/OQbyZlb7bDG/e2wG2j6ma4ZFY2WKS8HVMT2LgGQSUVDQIhWG4bnSgvPNZALoWvNmVkisouC47XgCYsHBpsd4W/8Rx3nFWJ4eDsXXvEyb/gTz5paFyF3GD5XAabjICWvTStvLv6VeQ4++xn9J1VSlLAAjdoQhfOPTBXebMoLtg4QkbBb9xdcQtY2wWMtX75kfoyblwtFVbqjosz4ioyzD24+Ztz1l1dJ94zDplcbpxUR154uL60bVa6GF5ana8ZEC914NTibe6999d81Ye6Dda7QQEL3KDDkVP52Evbu6Id9Ve9usW6DKJgV1AJ9d+vUyQls3RFG23iT0yuLc8+Uk8uhv86izMTJ1NG8k23hb/xHHNRIEUd2yIg5B+PN5D7fpdUwsvMfD4/06THOrtTDnJJ0RXZYrxdGOjDPrSKIwWcutjxx2D5tusgnVc8b9/W9CNw4muFqWQL+pjz+zQEUrz7wSn5K+K+y7KD01edyRT+/WQDGTQ00VC22Xxv+KwIeKfFRLnXmEVH1MRmjNwUwqgFuTXDL0chaOU1ALtXKR5put60Y/8JATCs84xl7nOJj+wVJzFIXqGfpa/35DsDfdiHVnGkgAVu0IOZQby53ubA5ta0rdyIuHRUWYpsJwz4WPFdmnIY2Xu07GUCFVzP3lFHKduo+KLZjAEoQ/vHSUMEdLgrDXHdsIHxEoskisyA2vRiKM3urC9P3VS7TG853nPHwTx5Ak4tG34w6jwPmze4c3C5HEuJNm0ivApuBpH84uVllTta+vNx9yPAn2vtwbqdxYLwABLuebMwUmoIgincabBnLM2QMyeKUxjRYeQpBFf8ERrqskxPdCWlsm1I11jZBMVSA/hZd7qEu124bxE5//0TkmQA0hyfhGh9WctIt8sF57vQseZvb56QQ5gQ+QwuN46DfjPBvR+9vpbz6UoRNwCZWH7CZn7echDiQ/cdYhANPOG8rcEr0UL/PVDKEPDfSnuyZulwFjsBEdNbhcqkWvXClPbY1TOOwjd6HQa+eeHM8bl3R47yTmPihfIUJoO4pl+s0DZOX++yCiOpqNEejmAWhm+WpyzBpPMHeMxpYOtrKHGsWpcpp1Nd6wu6tguXBCxLvKlYYx+yL61STIGgB/dh5Os+ddKLyjSAuzWSAzaq61pI2goOeAbPd3YHJVdkwMmzcPmc9z24nm19XNx1vvvENflXyzPlH6+flBNQXjlLBaz7cWRG2YYgE1elKVIvX4xkkeYJzNV553OMfci+tEoxBYIe3Fv35UsWEh14qxAIHS7BvlFumOkP4Mz5cJ909TOvPQWvuX9CDJ76LQIwADJfF8a4vw1X0pf/e1JSsL2SM7BZH9Y9D3nPf3DjM08poQPW3RXweK1wM9mHzIhqlWIKBD24uW2Qt9aC5LZMmNgGyi5XhbHO28sIfOCkwJRCb753Qt6bnVqhnGeunlmRYwT2WzNT5YOppyU3s9DtBKXuibZuReoo+gy4Ku3Auc8nIaKre5qPqSASbKRglWIKBDW4VbAIsqV4q3CYx8bXRPy2sfGh83MoRtKfvSyORoAz3PP9qafkuQ9PCScFbxeun//8zin5bNpptT9XWXXk70fgBnoIG/W5Kk3qh0hUNJYmXqz6nv35wj61ikEB1wvBIKEOAw5OIgun1wrGWXQMBrUbBdd+7s0Fp5WygMP68Zx8iL6zISLng6P+8bY6ZSrOGC21z8kScBH803U2GHft5nV/f/+0MstR+ihv/XKyCrElUaFL99oo2tah2Sf00BSvFO51xgCg+GjXkpJXHurHNw1qcO/CGs2b6232e3R0Tbcpjw5gMJozh5Y1TggyKrfWrM2Sg6PiXYJI34MA/efHp2Up8rSZy9DBcfLY9bVL9RXnhLABmvHyAlvfvwCTzgHkdeP+Y86FTjVMJXXSi+hmX27fX1AqXZzrVZ2/B7VYzoADbzqvcOAw3VGYGz/v4zCDVVgLTnCUUXjPdxAzPm9+qkrTzFxu/KMn12ys29+bm1qqdEz31JrY06uidaNJLPmka3MYmWlsrHeHG/tyyx4riEQPD+9SWz/FD99VsAj27/J2UbHTbuTQ9AzXQHCuE+3D5NgsygNtUJw0b+jeefx75C//ek6qPW8ZOT7/uHZnsojp36TJ96XYz5s3jJARQwwPNsrQfDb/yjGvSArymrkqYZgs4rBE8XZhAJA7pZ63n+1v9w9asZyKn9+Oet90Eo7ECK7WrARsgZvHk2NqrknvtjpwgmnZIkI6to2Uy5BbvAP22C4tne9qpDhKx/7brsxWBDg39FuLCYA+5K4KPemYsngY9vSiqXALcozvAkc8DgUgzXZEuZ4wnK/PzTmrnFX4HHPh+aSFtwsDgBhEYm0SiBzy3ia2v96fAf7eDBapaLuV95YNNBHRIVKvYZi0bx0l3ZALnJ5kDeArbt7coLT7X9Q0XG0O4G7JwQmjJc4prdDLjSGm/Ds3LE6lX/5pb66s35YrW37JhWY8X3KwxlUSBYCrJ7CzlM3RDldas/LWv7R6lfUb+5RBJBa4gxjcuw/AFxlrNG8XOp64GusEQxgsZPSHDo8MkXjEUDdC7HMHbLjHTfLaY2ufWgk17aCpSD1bNQmTaCivmLlUg05fT4kgBsElLZu6Ns/p88zvvAdDTRmJxj+am3Zh26UNSPb4E/6OQAJKhaSQjWVGaJhrSYX3q8i+ZObnV+Qz+/SgG6VeRe5THc4NSs7NAX7YRylxs5F+l8zM2b0UeJH2rSIkPi5J+iLmmY4u9ZEXPLKUxIblHXCNEDySWKsmxG9DNNcAZ7vJaWsjKux8cn0zMwx3/eRfPvKZn0au991wS10JH/n6kDD088z15XMpsvui/HrYzXrHFw/3o2cEJbhTs7CTp5P91xt9QjBlgsvlQ4nlCrS3j0lSSi5XYDif+pDj34eEDp/NSZNfEIDC7XtYIqHQat8hSiZdxUQM5QsWKaseXPsz8KRh7SjpiyUEJzJXhTRIg02fNPF22Q8fdzr6OG9p5O3n+tv9gxLcB8G1T2CPLm8WDmJmDa1Xx300lLfWoJwsKD73xha6SzdmyyIEnrCM6B0j/S+PdjnReIIWlEacJRR9X+oUGiFh4q/Ip84NGjw9oenn8J19S++/xHJkajVfV90+ByW4dyDnFr2pPFE0J1IMycSVqLQajTjre5GuqCyPME/Uw9U9KC1c2TNGRiCsk8WV9tzVdd44Rhr8bUpdebN+qHw18wzcaU3E4gMxM3BysL/zcyUL+5Za/rJi4St5+4C5LCjBvR1a3/MJFtGArgnnlDC4VVIxForPMdBy1+F6FhyqK8TfAchUyvWpJwsVdFkwR2VkF6lUSuURPcsLasLtDHzKUwG8RNQ7Dk4ntE97issS4PdemyQdoWug1v0wco6fgl4gE4q4PLSpAKJ7fl6RFIKzk9M7m9PKS0f2LftYkLU1mEvQgZtrsd3YpaKyhcBOgt15KDJ7tkd6onpQXDGbaDzWsNzJIxYAL0+yhLKeT81yBtaox2Ha+RX+2tQAH8GGgKfPFMEsVShp2N0yAWvrWwEWJlzwRPlmRaZ8OOOM2gwxLiFEEhNCpR6Uc/URi94cPukXNoRGH8uMJIDelQ6hPHXgdVrrTiVbJkCdnXdWsuA3n51TJKegnNu+P1fmLEqXk9CLVHZiYR8H+7o76MB9DA4OlQ0WIbBjMOCfuqeuGqDlGcxlncN7ZmBgp2D74CNItbQfWVAPHMuTQ9A+H0dQC0HM4BJupuegrIJAcPwwtiZCSOmATtHnPaHQF33a/DQ5gBDUEHDrlJMih8Q2CeJZzLkeiaiuGOyUUhdgbwwPueYXAPR4b4H32jCvJWGyqQi3pURBySYe/veSREoZw3FApyjpgNRPf3rxuNo3vDIAZx+zrxNjgjeIJOjAvePXygeLEIht20Dc7lQ2pyRYmKaYAROlic7cm/sPSISwG6AiiPNz4eFl8krlwFZ/GPollFVAUmbmWckDly8tlXFZEwx/z8czGfjBHGQKoE6rCYq62enwUUeiU2Zj4fa+rE8YdAuRAGdzeM09/2D9UlM2MYyUIn+t+BqSCDu80yMcqtkby5pW8MZbv7bskFiHC21fVPIG9HVZedddXVtdjgUduH9GQoHzcV6hBxbXva403XTu2Iq1Ht0/N8MExdQ/9bD+bgkb9rCeRn4z54FDbhcL7nsacd3kZARyedfIvNdFAFWcB9b1nIBaQru8H/RxV/QkY0YlM4+m5RRKHBxvakOUd1U2IkBnGjLJ7IPfdwqcXZJgC+/QJlJ6g0N3hq08CUB3LoWQVAoK3djVnE928Z19zL6+tn+si1+D41BQgZuZRX6F22RlCwf3zp15shDJAEcBrPxObn70ZKEs+TFTlqzJkv17oYlH1hLtlnYKSqNtm7LUTpTdkbzQmVuRS47Ftjs/rM9SkVvlrRseiywvNWRg1+gS9yzvPZzPG9w9WpYvT1Nx42xbeQrbH4U1+NUIJXXn7z53VaYsWpBqrJ9x3xRMepxEFmDP8aYXRko/6AyGdouWiy6IUJMmJ89vVmUpWpe3Hq7qyr5mn3tCB+Lq/v5+LKjAnZ1/VjLKGYnlquM40Bg6+RLE6KVrs6VOrRA5dQbeWdiH+iTsqkUwnfMcB7GWIMHBn37OQuKEeJc+z+RePbrHyhIM9vIWrr8vbhUl3WHLLq2Qa85fk6lO4VZG9BV3V7q2jZZWbaJlCzzNygsqgrszrAK0qbsq3Lxg/SZDhFd04UmkCQrt3czyuh+BKTPnhakkinXgEHMK2xtvp/MNJsny1sO4o+Mr+5p9HhFeUjJwPLN6fgsqcNfAIjHUlTxdgb7lYKPP9kpsHmAvNkC7E6c5qM/AsWLe6mx5YEJJcDEK66Yx8bJ5a7acRBZROwjsDyj5oSbMb8P7xpe6nuc2P/9465TsA3hYNm/NldeeaeB2t04qt0b2j5cdqEd5li4EdkLtMLn5mkS32vOFP2RK8mHkOLcB2twSHtJ6BOZtX29yLCKdzwfYfA77mn0erCWoWh4HXNUpZSeO8g4CDjoC2f7nYuA634tmn9UbstzmP6PihzuFuAKBq3vVhwg78ArXIZv6/C8WQ/uNpIHc9I9/ByBhTJ3vfusfXtcP6+CG5dgqWD+jf59YbIKAtMUuCpWKy9dlOSgIXZymDrHddnqCtucLbN6Ufc0+D9YSVOCuCT/ozh0wEMsBRk8PCDKQQ7DfahHZ1f1vvjJB2l8eY4RRujrBdowgGIAdTErbL3szEj/OWZDucC86hizA1j/cNcRdaYDglUF9McmUMTI4WV0Ey8FtVye6BeISiPd7sbb2BFDd1dftcfQx+5p9HqyljC6sfmQZhG136iG00teFQ4yJDmYsSHO7KybDKh9CwEe9xtj2FuBxVSgKR2NjPW4F5K5QIfXpvDSluDJLAvzMRA1T56aXGn7ZD3ZzPoPPclU4SVAcv/fG2tK4nuuVHc2A01AHuplWBbjZx8OgxwjmEnTg5rayE8YkqBzavu54ckOKyR9j0BMgrgoVXvffVAe7goa6PIeAawGTVRs3mwrynpuRNWUDAkZcgYrHNm/Oko2lcO/WSOTQurXrzftY76jYULkDwO6HKDB3ZRokhN1QipUlAbi7/nyOMz/6xKsTkFLa9cRzPvcOpGuDDtzsnElDE2TQwIQq6SdquecuTFNpjtxVYCSCPe6cXEeByHkSYEDKqEHxboNRaPr5ABsJkEO7AzdTMH2Ic7gmdlXoInoV3Gt1KmJ9DicWbv07aXyiTBzi3m+bGvovkaeN+dqqoowYnig3DEusikf71TODEty0x05BtNYl7d2Ltt7qJQIuMxXg+ibFrXKNIvxE2I3vvrmOxMLdVYvofG8Ertq7FI655Mds2ViGKcvg3pmyGAo+d4UeYo2bRdpdXjnJ0K4+aUJtuR3RbmZx33wPJif8eE66sfUQG+Lj0vrSaLnjmiSXTkY+rkqVPy4owU2qUxn1xK115IJSxFtv9Q5FVW5p+zp28yCndVV4zg3IXfYY/Njr2rTXPDYQm9lT6eWq0L3zE6Q0ZnIGV1xbX8PfuMHBVJybjC18XRWu/wch/jsEj+Kkwl067wa97h6X6NYphGv9d5F19Yfv00t9vqvneeJYYySRfBJ1LO+upZ54pj/fI2jBzU7h+vaRO+oq5ZCvO+ksnNjmIn/4RwjWcFcIwtHQij/3aH1phyQLdaAkurK3e2lj5soM2bszu1zrXE4U9BKb8Z1709iVmEjqIDCkKaLf/vRQfZkMcdedFxrbMHNlpnw2PdVIxuCuUV46TgXf47eVvZ+5lx7vl7cNanCzR6gUGjsqQUJ8bDJR3BMi7GczUmXZJvf+3Kwjs5+++GgDefKuegi7dG24JQdesCxTecnxmvIUBqh8tzrLLfemJpzKvZefbIRgmahSuTHX2W9/elplRC1NaihPvSp6DvUQ7EN3qZorer/qcn7Qg5sdeduoRLlyJOy1rqVdr/W1Mk2dKZB//MfYg7u0B1EUJ8DcOdhNQ/zzwf0V006Te1N7P9WN9MBnMZMLLQyllbVIvPDn104Y3nU+HlHss5HoO/ahVRwp4OOucHy4v3yjdvg+KNg6X+FeA+ytuhLgDC556X8nZZ4t11lFn7XjYJ7Mhga+EDExrlfwru/Ic4u4PFiYDvNZ5RJYrMHOJX95/bgcRsSXOyWb66d75ij77H5soFDZ5BGeqYV/3sUCt61fqEB6YHKSNGjqWuz1ZveRgzJS6uV3TspnizLcKtnc1SEF2UtaXBguDaFJp/mKhUqw0v54DhM41m0UJs2ah0tKBi6oQOG9F/6QBd/1k/Adhz98FYwkKkPZZ65CRivQlGp7aunyVrVttuuG0b/7UShl/vzKcQSHeDc7qnMNCA4GT7z6v+OyG3uYUZLghFOewrVml7ZRchImtt3YSWXfkTz5FdvqMBEEUzUVgjsXFWHzA6xNY5E8ojZSQzWFqH1xk3Bp2TgCu5nUdKsBd/V82se50eD0b1KRvMH1tkWurvPksbikMHno1rpBnYyhLHpa4HaiENe1B69LlLfeP6U2nXf62atfKdYWADhz5qTIUYSQ3o+tdtvDvFMeBRUjy2je4x/bwELbNJMO0kTFwjU0dxw9H/H5IPK4/efLFFmGqDhuP3w+9zJqVfHXcCS3uAl9pNtZ8TsExxUWuF30Mz3YDiKXGTe6r9Ai1sW9KnpIARmg/BHRVA8iBfPo4QlyF0IqK5NwgMCrzHWu6swJ4pOF4NbwS0/GVkJcr5dn0nF1r/M5phRoIxKUl+H53CcYrq2ClZL/k5W2XKbgvawcudK81RoCk6mX1v+cbee83npWee7LtEfLkKDiCCLbWIyVfXmu9Ow5lyMxxJSxSaXa2z37xMC9mwVuN33H9e6jtyDqCWJxVRVyxlBkInVn/vJlvRiyynowgWJVFfbFYzfXLrcuoqrq6S/P9Sq4Q5khoESpAU7k2uWxxKlVfIAKtifvqFclHmylNZ0OK2/OSJEVP+eoDKulnVuR35jgkbHe785OdRuWWpH7efLcxLphqi8uaVJ1k21F2pNXAC1mFRevrrkjI21x006BwUU2DU/NELVyq2ISlP74HkhqOBFr3vc+OaV2wij9bM/+Ss+rwXABNa+bdyNl0bsz0+W7palIKxwijaDtvrRdJHbxiMROoWHYJCFc4hDgURa3p7ItE/7lJ1Ly1X7W2/bmqYyth7GJXi52Jt26O19uuybBviUPlyqsy1YuEyCi+5J/h8JkNwG7ibIv/L1wqFPiKoCJ4izthWZC2XAQGupV2NlJ5NWnRFCFayqEMsW6fNtGzdioxvSr/378/cgE+e1UofIFL09uMU+0hOOiTbsoucrkS34UdXjm1ZMqqSBNZ3nZZ5V/OH3E52Ii4L7b3J6X6YXq1aspCUgZHIu8aBTtWXjPLORFT0s/K8exjc8JJC9kqmFuWK/CM20Dk4OTOeIOHELOtacb2eOiR8LPfcmaDPkJ0WS+Sk1Gt+CRIxKFfRBIJa/AJJ1y4KPY3rBDjU2i9fISxxF9Rh089hoT5TTTsnUYOTl5hjdUDTROHfLYE71zI3LOhybVxj5aZ2U1Uv96u3CCZ7KGuyfUcnDQmLc6U2UK1Q4jBCH/0DW8OwAAHYBJREFUWDjppMOVlXHc+41D6tV8Du9LettHGT/jeo4xNc5s9+JhPuMItuSZBzBPGae2A1HJGO++rpY8cSDfZyGdfZAEkrQ3Sy+sn/8WY0SnZiI/PsSjGudAVNKVf4qtI9lFpG+WFt5Zc9tmpIR4Y2cONaDYNvyrgdGWlY20tfnYB4o9ZBNV+NGfCzOD3jMhwScebATkMOQy74mYal0YGrphC7KSgvu6K7yOoDT/8Zgu6nfnc0y/6/P0O5/1I9xLGaOtSxekYR45NN4n9m16oN01PsHjmynqtnjjXVPqZGoGli8m7m17WHh4OHahCWRw2xpyQV1jxjezihCMvPSMHCQqcJ+kzxtE98Q9qcx5/M66Ugu7iHirEFAt20XLzYhyMgNzG3y3d+/OczjmrTro+/L5e+BzvhXPNpcbICIzKUJpE435/Mp8Jo0ZjhsoCjR7G23oPnYyBV6BRWoZavxmzKJxsdFSL9GIYTD3r/16D37wCufWlb64SX2jqno6w7ea0KCnpWXANTJb/Wb6yYPN8t6tGCJ65411JCLG8ysaCjFRWDffhjRGDbG7prmsxN5czJeuaWv+zVuf+SxuwvDdeqOv9HMYoXYHlgzcFNEbghdpSxqXlqNN18Xf3imdshw8Cg/HAtsuFfiuBaSEhFj0raE/8LbOyTvgtjWlJcBdM9RkDsNICIEaNx3gPn7atnYNNHSjo67pGytXjYj3eIgogdIBe271AVc0F/pyb9ya4xUgmZ/j6jPrxH3PnPOt9aCGHhOdp8FNDzTSljQOxFJ01oDxgaMnlFgeomdj23tifCwwEYLfSs+W44m2ewXcumLxMZHY7rWW8VU30vbjzgPH9GkB904z093XJkr3Hp4NESWJOrSJKKE82o5AkoNwRXUioU/oxmfSPPYTdiE1F5rG2iCTjafrRJqStmWZ8sx18ZfP5FM6U83JM6mKkdknP9uHpo3q+qy6XgG37vBo2LlbNGugGqPFEn6hUm3D1r1GI80/GEcC4pVhho8hS0mL1sVKr/OtOPufJipzoT36m+8yJBPisaar+Xdvf+YzGfk1azmyvDgp85JhmrMPXg9UhLQkTQM1hPOcjRgHjp3G/urH4YcQppTIJI0W1zu3b6EoVcNmnvQA2dzewivg5tModrC0vaiZejePTCrVtu86oDTmdrHFOCugXpkX+/Hb6kht5BnzRCGQ1iBhwyzsikkNdWrWOfkUW9+uhAmsKudAPns1NhN8D55rTMJIT7avAHbW1VMTDmlIWgZ0rnGybpRt+4/K8eRTSr9kn/3wWw2M+65tbOD2QY86am2Munnm1WYOu7xVE8Wpz1G1ylGC2S0sLFTOnEmTJet3wknjUnCEsxDDvDbPeKY9bu5C09BN42vJ6++cQEZRJ9bm5hp3hwmU1FMF8sIbJ+Xz5mlSAPPXETiSMAzUUyBy9+zSjvPZ3HHznQ9PyVxsNkDPuKOHcyu01W9p96cCjTQkLQO6cHyjLFy92figX0lAjPsm0EE1qB2vj3r93WuI0hy5d8dLitfdttmKM1hOVrYsXrtVNdDbWkNvU3ECcoxfPSrJI0kWNZB2YadNep5xm9uqBLamHetARxmmU2K9mBrZE/WiB9oY7JFGGgZyIdPmmE+HiXfDz7tgAiuGFpehLF0vbYXNJMLBzDxDO3XTUl6Ka1DKSZX5ie1hI9iY1i2bOtyCa5NweOmsXLcFmTfTlS1Qr1ccTgyQL4aCLUn6Y/tbTxTSjmODf8aw8MRdPXMPe708VDHSjFlnAlGBZqao8iPHgWlL1kvybyfVeluJ5KDTOW4zg9LFtt52uU+UOsOzL14DN6tpm7Dkyr6XO9Ya4Ka9+/TJMzLzu43qNxwK6EIPtnsn1pLmLT2nYAtogpSj8qQVaRZty/tWjkv89hS9rFy4chOce2Dmsk/LRLfA17+2DOrWTtWf5mBfFK8+RTewf6fWqnHGTFY85VNcmbXkB3WYASUBjm+lDHoY8cbe9GDzxaDwxTNII9IqoBVoNkKdtXGmtVv3yZZteyUSUqnm1pqWXTq2koToSJ+J5Hyud8ENHFNrXishRnpe0Va1U68/iOhwmAr27DksM5dvUr/5KuJKPcxLL0xW+CAS93ELXKu4pgBpQxpVm00EbFzp/W+WS14uXHW1yKqab/w4bnBX9c3hJ9fk8dhRr4KbtdT2vOtG9MQOkeHYWM6mNVc/1kBmzkJ5+8tvgXWI6lCuVIcyokeMjEBwha83OQgE2pEmpA1pVB0KI78odW7YfkBW/7AVlqDiuAPFyIDtS9u3xOaNLVVztTTri7Z7HdzUIFJq6dSqqXREI1nsDST3BuB37jyA7B+r1G80iwV6oRWQXla9+sCHuHrMV57pEtCCNCFtbJZSz9y3Cu/CsGWWFz+eK1mZWQ62be24MnZod8XMfaUl1+TwOrj5IL0muWvCECWyKM24adCTQB9MXyLHTqUpe7c+X1cyEN/pZfUk1pRtnPzEA7EtnqozaUGaBKoHmjMdyIg4jD9fvF5+3LhDIiiZ2jTjCs1gak2bNZSJQ7upS2v6eEbzCbjZKAK2T8eW0rNbe9VQM/cOCw2TQweOyAsfzFW/nSsZBquOB9oLt5J94MbawvxfwV6oQHtocu1qs70uxzM15KfTMuXf789Sy0vHtbbR47eMG4zzmDcQSPdx8Qm4zW164PqRKlLMzL0520XFRMn8xd/L9KUb1Nq7OojnbDe9ru6Fv3QwK9jY9imT66jdSs1jIZA/awb05GvT5LdjJ8C1kYCB608UY619Tlq3vlCuG2Zwbe3U5cs2+wzcbBxnL669rxnRx0YE8+OhXENw+9/emCabdx82xPMqmO28QfwxCF+cMDZRmPAw2ArbzLaTBtWlUIlG5e+LUxfKtzDlRjiZvgzGhdRcN16lvNbI5X2pJdd0NqNLH/Pau569Hps8Uho0rGvTnNsGPAhA8TwVHmv3/f09tf6mFpKEDPTCpdYtV2H7m4FBpmBDu9lmtp00qA6FEiXHJSXM/308x0E7zvbRtZrl6hG9ZWCX1mo5qse9+sGHLz4FN2cvzmK0e//f3dca4ovJdYXiOcWbQwePye1/fluKkCVVAdwm7viQLh5/FL2wHry+lnTqAhNQNRnopRIJbWRb2ebq4IHGtubDt57r7GUbd8mz//5MijBelbeZbXxSHKepl0q0P9xxtSKPXbdUKrG886NPwc0maPF8aPf2yAc+ULnm2R1b8LsG+BY43//+2XewnS0ADqJxUgj0wvREf72vvgxHql5vpGnyF/qwbWwj28o2V4dCYDMRA5eMDz/3Psxe2QA62qbHJSYziuM07T57zwTljVZV4rimdw1UqEpQw6eeRfT/pKf/I5s271TijHJwsdeshvL26durk7z5zM3CrC7aYUCfEqjvzGS6CplM12zOkV+QgDAFudGqphc8R0G6SycmhUrriyOkV0cjVVTgpCMunQ4Uxcmx6agy5S//kxPHTysJs9jsxesVuuXB28fJPeMHKv2Sr01fzq2oMnBzViNHTj6dLuMffllF0iixxjzK8XtuTq5celkr+c9Tt0jzRrVBtMCN/XYmPr8zN1laVuA77nCTgnhsrVtdRHD2DfkehyOXhnNXb5FnXvpY0pCymOmJ7cDGeVxnkzFdPbKP/OvBiX4BbNa/ysDNh2uAb9p1SO7843+VMk2pFU0Ar4FRk4dNDC5o3EDe/OPt0vGSJgrgnBjM4jzvZxWLAp6igNoyCVI3x9mrXyyRNz74Rtmy1VZADuOTHpjnpGvndvLOn25TIc78GZdVealScLP1NI9RfFm1eY9MefYt7FOVq0BrXi1ogMfGxcgf7r9OrhvS1ViDKyIS5FVOR6sC1YQCHHdkOhTDmXjh6de/lNkLVimtuFl5xuZqjt2u7UXy2fP3+hWwVf3QGECkaosG+KIftsnj//pIsjKyXQK8sMhIHjio3xXyzK1X28V0aiQpOlnFosD5UECZuWwS4aJ12+W5t7+WvXsOSqTeFssEFTOw3//zncoCpCXR86mDJ6+tcs6tG6MBvm7bfrn3r+8oEV0TUJ+jWTRTNF3QpKHcNnGY/P7KPkqLScKyUIyyikWBilCAiloOGy7zmLn0tS8WyZxv1yiFLoHtqOjFefhHntipY2t5+9nb7Zpxfxt7fgNudoYG+Na9R2TKX981lGxUVtAZ3yRfEPTczeEcOqVd+4vl0ZtGy4DOrRTBeRrhba3HSVGrlEYBM0MgWF+btlSmzlwqyXAnVdyaiDdxa81ceGz44G7ywv0TlSjubxxbt9mvwM1KaYBTi/7ACx8pM5mZqLri+lguNhWMjomWIf27yNO3jZFGdRIMkAPllqhup5b1wUQBAtlgAoa+hiL4q1Pny9YtuzFmQorzDpiu0ZYc7qBz5w1XYefRoXbfC3/j2LrafgduVkzPhMzi8tzH82TqV4vV1iyKwOwW9oytkItzN0Vy8trY3WTCVf3k/omD7TMqT/NX4us2WO++oQCHDaU9LYLvOJAsL344R1at/dkQwSMhgqvxZR5gFMLJwM+pVGF/uvd3QgcsMiGOK97LX4tfgpvEojREkGtN+h9f+1yOYBcHUlMT20xUatQLCgukML9AmjS7QJ6+61oZ0bO90nqaFSXma6zPwUMBHaNAaS4lPUvemL5UPvhykRQiLRKzpzhrwjnIOKbUehuf+/fupMRwuk5r6dLfqee34CbhzABPg4nspY/ny4x5qyQ/L981yBXwayiQMwFEzy6XYj1+lbKN816cfcn9/Xm29fcBE2j1U+tq9D1BTVfmr1dskjchgjN+gTZrZuF14NYENf4Zx0QFOD122zUyus9lDuMxEOjg1+DWBFQdhC8Ug+jw8sJ7s2xrcZ6h+DiQq8/mIRwDkHMxK0dFRcmksQPljnED1XqcXJydZ63HTfSqhh85HJhi2BCdawgzk1IEX79hm4RixxtnZxRFAk78+EAmQB/xcbDEPHjdMGXmCgQx3LkbAwLcrDQ5r16LE7tfL9sor6CzmACePWKebXUjlVgFTTtdWCmq3zx+sFw/rLu1HtcEqqbvrkxb8xZ9LzkYB4y9VoUDShcOKBYco2TXA9mCnr7tamnVtIEaczzV39fXRgMcXwMG3LraZi5OUf2t6ctgvliiPNvs8rZDxxH4IZKfn69m5DZtLpSHYTobigTxxVpTMntbB+sHWe8BRwGODfYi+5JRXC9PXSDT5q6QU8dPuTFtOTIFhmo+AecoKsxYApFbq4rbXgIO3LryJDzxyBl1/9FT8hzyWK1Ys1kpQNi5al52ADl5ew3M3jkSFR0lA/t0RrK+UcrLTYGcs7Pl5abJG1Dv9kka/U5wM8jjjU/nyY4d+1VKr3AozPR2P7ph5jESFx8rt04YJjeP6l2tpLqABTc7iTM18atFpu827MS6ajY2OjjIKVmBWStGijvVcIrJg1IuqVaCXDO8l9w3cYjUTohV9+OsYIFcU8u/39n3BDYneYKVsdbPQR/DTKTMh8/EHw7KMjaHJ7PgOtqshw/sJo/eOFIa10+yj6eqDtU0Knj+rwENbt18DXJ2Cjn6x/PWyP8+WyCnT6eqzmR3chCYC9fj9FUvAMgbNKonT901Xsb062iZzsxE8uPPZtMWM5C+8um3anl2FhpxphhWIDb3uZ7sbce4UcDjt4yWbticT48fzST8uNkVqlq1ALduMTuJhZ1ED7dXP/tW5i79wb4eLwFynMd/tI+zdL2ivTx4wwjp0eEi9d2smFEHrJcqp4C5j7Nz8+WrpRvlP1Pn2jKQhgPTkMzE5K6sQU2RDP+Zu++u64arrKQcJ+b7VXnjPFyBagVuTRuzIoR+6s+/N1vWb9xu/GwSy/T5WlSjVp2buI0b1V/uv26oYTqDYoZb4HAgWKXqKMB5W0lf6Ab2xQqECNNashH9Goo959yZtlSNcXEkNuGbMLq/TIFJlI4o1RnUupeqJbjZOA4GdiAHAnE5e9XP8soHs2xebpDa8M/depwgb4TkEJPGDJDbr+5brZQsuuMD6d0sQe05fFJe/XSBLF6+QZm2It24jKr2of+5Fu/Ts6M8A9NWiwvqVFsR3FV/Vltw68aateoU4/739XL5aMZiFTNO1JMfO4AcB2g6o6hOn/UWLRrLo7deI1f1vlRxDswZ6hoOGqt4lwKcnEll0preZc99MEdmzF8tqWdSy2XaYt89gb5jimGWYODWqqG2l2oPbt1YM8iPHE+RFz6ag9n/R1NACs4ku9dFAR853HINx4c+PS6Tp2ADbdkE+dZxHk+1tOqaWJ59V/TFLfVS6Otlm2Damq8SJ1DDXZZpKzEpXm6HaevW0X2hEQ8JOlDr3ggacLPBBKRZVGdqp3/CPr5z169k32QRBl1MINdebjSd0R46/qq+8jCUbszGykHI+zElj1XOnwLO9GTU1v+9/oX8hDTXlKJcmbbI1dl17Fy6jI4c1E0egWmrQe141Tfsyupi2qoohYMK3Jo4BKTudIaVfrFkvbwOTu5gOuOQUaPGuEqbzgoLCqVZ8wvk/slXwnR2hcoCY0WdacpW/t1s2krGrjNvfL5YBQlxW9xSTVu2fmJWlCduHaO2q2LfmifxytcqsK8MSnDrLuMAYKH4p6POZi5cU6rpjOcXIKyUpSNSLj9w45UqCwy/GyAPsQsAPGaV0img+gDdwCUOExJ+unCtvI9QzOPJp1QoporaYiYeXZROpFgZ2rhxfbkPfTB2QOcSkpm+JFjfgxrc7HTnWX7XoWT5x7vfyPfrthk/uhDVNXqpVWcO6zHIV33/xKHKlVVPGBQXLZWbe1jpdTWpRBLrbCibN/0iEVERxib2uoP0bUx9ERMXLdeNHih3jR9gz2GmpTF9erC/Bz249QBwBjkzsb4EO+r+/UeUepyD0EGrjgv1epwgp5fbhFH9ZMq1Ay3TmSaqm3dOgJz4OAFyXf3KJ/Nk+eqfVJy+sWMmWDk7RBcTqHnN4P5XyKOTr3IwbQXrulqTyNW7BW4nqmjOS1Gd6/G3Zi6X96Z9KxnpmUrhxkHpCuTadNYYWVkfQkDK+EFd1JKdHIpFa37VlyB9MduraZb801vfyFzsyZ6ZnuHGtKVlH4JdpGXLZvLU7ddIn44tFfbZD5rzBylJS222BW435DGbzujK+jxsrAu/W1em6Yy7o4TDY6obXFmfvuMaadu8AQaiocBjdhg9XN08tloe1u3XpsPPF69X2VAOHjhqT5zgkD4YVDBrwWvXTpQ7J42QyVf2Uppv8wRcLQnmoUZZ4C6FkGS6Zu7AnOr/fH+2bNm+V4mN5gFovw1FSFxI01kUcl6Ph8vjIzcMl6T4GAVyDsxgMZ0R1Lq9lF9+RtTWs29Ol80wbbGEYRJUhYS2FTNN6TJ61aDuwv3cg8VlVNPBE+8WuMtBRQ5Qjj8VdQZRfTqcX17/cK6cOHG6VFG9qMjIykpR/a7rRsiEIV0kIjwU3B9usfBX50CursVs2jp2Kk1emYogHojg2dhQgvZoVUygBjGUVMPJlKVrp3by5K2jpcPFjRXt2Qdc2lRjkql2e/LFAncFqGkGOdeMLyPq7Kt5K+2urOpWDgOWR2qo2GJuV9y+Q0u5G55TdGVlUaYzOMBUJ4gbNDKkE2YZfW/2Kvn0m2VyChMhLQsus4yCAgrUwDWzoTwweZRDQkIL1Gq4VPjFAncFSUbsmrmIcxYYO2txALkB3zwkbGRyvlHDesu9MJ3RlZX3IrMK9PW487paZ0Nhov8ILE9Ca4baAIzGsoAk5NXqG2hA778bxw6SO8f2t1sbSBpLC26QqzKvFrgrQzVcw4FnBjmzwLzw3syyTWcYztwlpU79OjJ2RC955Prh9sHMqgSiVp104PTFZQZNW/94e6asXb9VSSwMoTUmMBuo2UgtW/M6SC7DBnaRJ34/qlpmQ2Fzq6pY4D5PyquBi3sQlDSdvTd7pbwD01kqXCjt3IkzganQPq43UGjZ6kK59/qR8LDqpM4w3890iV9+NJu26F3GhISM2ko5nSJR2OJJFXPbTaDmb9z69imEYjIbCk9j2y0R3CCbJ14tcHuCiriHs+nspU/my/yl65RjhlkDbH8cBjr/0XTGRANXdG6LqLMxtg0UDAUer9N4sF/nBx/MIjgBOXX+D/LW5wvk6JFklZcsDO1xSEjoJILXq1dbptwwUiYhzTTbF0gTmh+Qv9xVsMBdblKVfSK5j9b2kgPpDRQY1URAGCBXJxXfjKMbv9F0xm1txl4F09nvh0sDhC2aTUnFF1TdJ3N9+PnHHQfl/974XGUZ5QZ65TFtMSHlIzBtJcDMZYHau31pgdsL9OWgxX/DdIaEjbOwhc3rcLE09jrTiiQTyBVnw4aGNtNZQ7iycu9xhw0UcHpVKd0IZLaH8xAnKO5h/cqnC2XBkh+U5OHOtKVIiwu5ru7RtZ090T/vRRpZIrgXBp/plha4TcTw9EczyGk6ex37P38++ztlOnMpqrMCAA/T8jK09JJWzeUugJyurCyK0wEY2tNLHfTii+bUBgiNDfRe/XyRMHLuzKkU2KsjSjFtoWIAMLOhPHLTKJXo3wK1FzvLxa0tcLsgiicP6QFNrkeQMAvMP5Ag4rtVm5Qrq2KHfCBP1AXn8R+zwDDzCLOyTsGeVX0uvdgObCqzGAlZMxQ39mBxBjRvTWXZNMS8f/z1d7J/7yEVtVWWaYvZUG66dki1S/TvQVJ7/VYWuL1OYuMBGuRaFLVngdn5K7g1/xc7cugqqagzms6YlRW24ksuaSY3Xd1fxS5rF1YNRqV8K76QtyyzGPOJManwM/UFvC+P8Hp6lr094ztZtOonpSzjMyiC85nOk5F6GI5zMho1tKeVDaVM6nv/BAvc3qexwxOUaI0jBDk/fzTXvIGCDeQEj7ngXIKJu5YyeUHz5o3gc91NBmMdeyncM12J6bwFQch/RWeLoV4zxFDs8fmuCr3K1mzZJ3OhJ1gDW3VqShruH1K6y6itvkz0/8ydY61sKK4IWwXHLHBXAdH5SLPp7Exalvz7829L7j1OHmrCucHJzyITDNfkBRKXEC/NmtaX7kgx1LPjJXJJkwYqwCIWyQ5cAd65qcwomgmp4HhKpvy855CsWL9DtvyyX5KTT6qdWMIiw8HJ4QTPYgOw+ox5wZA0jONM9H8P8pZNGNRVrTLME5g633qpEgpY4K4Sshc/1AxybqDw4sdz4d21XW1oSKSQvyoxuPgSIAvH8cekgQUAOT/TZzssNEzqN6gttbHerZUYJ4lw6YwGQCMiwiQM7p+5sKnnEtBZOZIKDn0qJVVOn0lXueP4DCrxNJdW4DWnN+Lz7aA2Jh1mQ7n2SiSMnDQs4L3szOStLp8tcPtBT5o5HRnksh9tGxruPWhwbjuoUFkHDkoI2tbqbAcBCnMaQc/4aCMyy8T6bW1V63OI2gQy18hq/Y4Jwl7Mz8BBnm/cxQA1191DkBzyfij5mOifp7MNWp9gv4/1oUopYIG7Ssnv+HAChEDRoaWzoMj6eNYK2b5jn/1EZ6DZf9AfbCBVsDfhVf/MdwVUhVP1yXHC4Am264yJgxcY5zG+un/Py+TmMf2tdTXp5OfFArcfdpCZk/Pz8h93yUdzlsumLXtsmVlRaeKNHB1+6gQf/xmorWSDMClw4mBxzorCNfWAHpfKTaP6Kk7Nc8x15Her+B8FLHD7X5+oGpFZEkBmUZeZWZes2yGL12yWPfsOK791h+oToDhg8FmHX9x+Mc53mhhwn0Ss2bt0bCXDe18u/Tq3Uu6ivAnrxLpZoZhuSeo3P1jg9puucF8RM6AILDJYxpEvQfrlrXAq2b3/qBw5eqIk2N3fssQvdDpp0ayRtIDGvQc074O7tFFKMp7IZzpPNCVuYB3wOwpY4Pa7LnFfIQ1yMzfn2XRtZRLHoydT5BcA/dejJ+VUarqcScmQHASk5OXnCzPBMHEj/+IRjpkQHy2N6teWi2FKu7BBHbmgbpI0qpeoJAVdAwvUmhKB+W6BOzD7zeCmACwLN7vzRFFg5j2RpdV5AvHE/a17+JYCFrh9S2+vPI2gVCo1m8hekYfwWpseDet1KtUqcrV1rj9TwAK3P/eOVTeLAudBAc/Ic+dRAetSiwIWBbxDgf8HJ8RGhnliV7gAAAAASUVORK5CYII=;" vertex="1" parent="1">
          <mxGeometry x="11.5" y="330" width="97" height="89.54" as="geometry" />
        </mxCell>
        <mxCell id="ZKlr_kT3cUVLFaIX1UZP-3" value="&lt;h1&gt;Kube state metrics&lt;/h1&gt;" style="text;html=1;strokeColor=none;fillColor=none;align=center;verticalAlign=middle;whiteSpace=wrap;rounded=0;" vertex="1" parent="1">
          <mxGeometry x="-55" y="419.54" width="230" height="30" as="geometry" />
        </mxCell>
        <mxCell id="o_4U7GsrAU_tSSZJTh1c-1" value="" style="rounded=0;whiteSpace=wrap;html=1;" vertex="1" parent="1">
          <mxGeometry x="350" y="275.63" width="270" height="120" as="geometry" />
        </mxCell>
        <mxCell id="o_4U7GsrAU_tSSZJTh1c-2" value="" style="shape=image;verticalLabelPosition=bottom;labelBackgroundColor=default;verticalAlign=top;aspect=fixed;imageAspect=0;image=https://seeklogo.com/images/V/vector-by-datadog-logo-011D0C34D0-seeklogo.com.png;" vertex="1" parent="1">
          <mxGeometry x="365" y="291.21999999999997" width="240" height="88.8" as="geometry" />
        </mxCell>
        <mxCell id="o_4U7GsrAU_tSSZJTh1c-3" style="edgeStyle=orthogonalEdgeStyle;rounded=0;orthogonalLoop=1;jettySize=auto;html=1;exitX=1;exitY=0.5;exitDx=0;exitDy=0;" edge="1" parent="1" source="ZKlr_kT3cUVLFaIX1UZP-1">
          <mxGeometry relative="1" as="geometry">
            <mxPoint x="350" y="336" as="targetPoint" />
          </mxGeometry>
        </mxCell>
        <mxCell id="o_4U7GsrAU_tSSZJTh1c-4" value="Scrap metrics" style="text;html=1;strokeColor=none;fillColor=none;align=center;verticalAlign=middle;whiteSpace=wrap;rounded=0;fontSize=15;" vertex="1" parent="1">
          <mxGeometry x="210" y="300" width="120" height="30" as="geometry" />
        </mxCell>
        <mxCell id="o_4U7GsrAU_tSSZJTh1c-5" value="Scrap logs" style="text;html=1;strokeColor=none;fillColor=none;align=center;verticalAlign=middle;whiteSpace=wrap;rounded=0;fontSize=15;" vertex="1" parent="1">
          <mxGeometry x="230" y="340" width="80" height="30" as="geometry" />
        </mxCell>
        <mxCell id="UrUFSYGlJsD17vtK8OYp-1" value="" style="rounded=0;whiteSpace=wrap;html=1;" vertex="1" parent="1">
          <mxGeometry x="740" y="275.62" width="270" height="120" as="geometry" />
        </mxCell>
        <mxCell id="UrUFSYGlJsD17vtK8OYp-2" value="" style="shape=image;verticalLabelPosition=bottom;labelBackgroundColor=default;verticalAlign=top;aspect=fixed;imageAspect=0;image=https://docs.victoriametrics.com/logo.png;" vertex="1" parent="1">
          <mxGeometry x="760" y="285.63" width="240.01" height="100" as="geometry" />
        </mxCell>
        <mxCell id="UrUFSYGlJsD17vtK8OYp-3" style="edgeStyle=orthogonalEdgeStyle;rounded=0;orthogonalLoop=1;jettySize=auto;html=1;exitX=1;exitY=0.5;exitDx=0;exitDy=0;entryX=-0.011;entryY=0.499;entryDx=0;entryDy=0;entryPerimeter=0;" edge="1" parent="1" source="o_4U7GsrAU_tSSZJTh1c-1" target="UrUFSYGlJsD17vtK8OYp-1">
          <mxGeometry relative="1" as="geometry" />
        </mxCell>
        <mxCell id="UrUFSYGlJsD17vtK8OYp-4" value="Store data" style="text;html=1;strokeColor=none;fillColor=none;align=center;verticalAlign=middle;whiteSpace=wrap;rounded=0;fontSize=15;" vertex="1" parent="1">
          <mxGeometry x="630" y="291.25" width="100" height="30" as="geometry" />
        </mxCell>
        <mxCell id="Cq0Q_gS6BQXobvy9SkVP-3" style="edgeStyle=orthogonalEdgeStyle;rounded=0;orthogonalLoop=1;jettySize=auto;html=1;entryX=1;entryY=0.5;entryDx=0;entryDy=0;" edge="1" parent="1" source="Cq0Q_gS6BQXobvy9SkVP-1" target="UrUFSYGlJsD17vtK8OYp-1">
          <mxGeometry relative="1" as="geometry" />
        </mxCell>
        <mxCell id="Cq0Q_gS6BQXobvy9SkVP-1" value="" style="rounded=0;whiteSpace=wrap;html=1;" vertex="1" parent="1">
          <mxGeometry x="1090" y="275.63" width="270" height="120" as="geometry" />
        </mxCell>
        <mxCell id="Cq0Q_gS6BQXobvy9SkVP-2" value="" style="shape=image;verticalLabelPosition=bottom;labelBackgroundColor=default;verticalAlign=top;aspect=fixed;imageAspect=0;image=https://cdn.icon-icons.com/icons2/2699/PNG/512/grafana_logo_icon_171049.png;" vertex="1" parent="1">
          <mxGeometry x="1119.49" y="280.75" width="211.02" height="105.51" as="geometry" />
        </mxCell>
        <mxCell id="gFM4v3dtQgs2eNscIQQ7-1" value="read data" style="text;html=1;strokeColor=none;fillColor=none;align=center;verticalAlign=middle;whiteSpace=wrap;rounded=0;fontSize=15;" vertex="1" parent="1">
          <mxGeometry x="1010" y="300" width="80" height="30" as="geometry" />
        </mxCell>
        <mxCell id="ywWRJ977KALCyJbNyH_O-2" style="edgeStyle=orthogonalEdgeStyle;rounded=0;orthogonalLoop=1;jettySize=auto;html=1;entryX=1;entryY=0.5;entryDx=0;entryDy=0;" edge="1" parent="1" source="ywWRJ977KALCyJbNyH_O-1" target="Cq0Q_gS6BQXobvy9SkVP-1">
          <mxGeometry relative="1" as="geometry" />
        </mxCell>
        <mxCell id="ywWRJ977KALCyJbNyH_O-1" value="User&lt;br&gt;" style="shape=umlActor;verticalLabelPosition=bottom;verticalAlign=top;html=1;outlineConnect=0;" vertex="1" parent="1">
          <mxGeometry x="1530" y="305.63" width="30" height="60" as="geometry" />
        </mxCell>
        <mxCell id="i22oIuAdkm0JpGD4TpnA-1" value="Check dashboard" style="text;html=1;strokeColor=none;fillColor=none;align=center;verticalAlign=middle;whiteSpace=wrap;rounded=0;fontSize=15;" vertex="1" parent="1">
          <mxGeometry x="1390" y="300" width="130" height="30" as="geometry" />
        </mxCell>
      </root>
    </mxGraphModel>
  </diagram>
</mxfile>
